# xmcd CD database file
#
# Track frame offsets:
#	150
#	18120
#	41172
#	71458
#	93685
#	116212
#	131442
#	153549
#	176429
#	204925
#	225235
#	265931
#	277644
#
# Disc length: 3948 seconds
#
# Revision: 0
# Processed by: cddbd v1.5.2PL0 Copyright (c) Steve Scherf et al.
# Submitted via: CDex 1.70beta2
#
DISCID=a50f6a0d
DTITLE=Georgie Fame - Cool Cat Blues
DYEAR=1991
DGENRE=Blues
TTITLE0=Cool Cat Blues
TTITLE1=Every Knock Is A Boost
TTITLE2=Moon Dance
TTITLE3=It Should Have Been Me
TTITLE4=Yeah Yeah
TTITLE5=I Love The Life I Live
TTITLE6=Big Brother
TTITLE7=Georgia
TTITLE8=Cat's Eyes
TTITLE9=You Came A Long Way From St. Louis
TTITLE10=Survival
TTITLE11=Little Pony
TTITLE12=Rockin' Chair
EXTD=YEAR: 1991
EXTT0=
EXTT1=
EXTT2=
EXTT3=
EXTT4=
EXTT5=
EXTT6=
EXTT7=
EXTT8=
EXTT9=
EXTT10=
EXTT11=
EXTT12=
PLAYORDER=
